<svg width="41" height="41" viewBox="0 0 41 41" fill="none" xmlns="http://www.w3.org/2000/svg">
<g id="Frame">
<path id="Vector" d="M11.7917 16.7604V36.7604" stroke="#8b1e3f" stroke-width="2" stroke-linecap="round" stroke-linejoin="round"/>
<path id="Vector_2" d="M25.1249 9.89376L23.4583 16.7604H33.1749C33.6924 16.7604 34.2028 16.8809 34.6656 17.1123C35.1285 17.3438 35.5311 17.6798 35.8416 18.0938C36.1521 18.5077 36.3619 18.9883 36.4545 19.4975C36.5471 20.0066 36.5198 20.5303 36.3749 21.0271L32.4916 34.3604C32.2896 35.0528 31.8686 35.661 31.2916 36.0938C30.7146 36.5265 30.0128 36.7604 29.2916 36.7604H6.79159C5.90753 36.7604 5.05968 36.4092 4.43456 35.7841C3.80944 35.159 3.45825 34.3111 3.45825 33.4271V20.0938C3.45825 19.2097 3.80944 18.3619 4.43456 17.7367C5.05968 17.1116 5.90753 16.7604 6.79159 16.7604H11.3916C12.0117 16.7601 12.6195 16.5868 13.1465 16.26C13.6735 15.9331 14.099 15.4658 14.3749 14.9104L20.1249 3.42709C20.9109 3.43683 21.6845 3.62404 22.3879 3.97475C23.0914 4.32547 23.7065 4.8306 24.1873 5.45243C24.6681 6.07426 25.0021 6.79669 25.1645 7.56576C25.3268 8.33483 25.3133 9.13065 25.1249 9.89376Z" stroke="#8b1e3f" stroke-width="2" stroke-linecap="round" stroke-linejoin="round"/>
</g>
</svg>
