<svg width="41" height="41" viewBox="0 0 41 41" fill="none" xmlns="http://www.w3.org/2000/svg">
<g id="Frame">
<path id="Vector" d="M20.625 8.42709C20.627 7.76047 20.4956 7.10019 20.2387 6.48509C19.9817 5.86998 19.6044 5.31246 19.1288 4.84533C18.6533 4.37819 18.0891 4.01087 17.4695 3.76497C16.8499 3.51907 16.1873 3.39955 15.5209 3.41344C14.8544 3.42733 14.1974 3.57435 13.5886 3.84586C12.9798 4.11737 12.4314 4.50788 11.9757 4.99443C11.52 5.48097 11.1662 6.05373 10.9351 6.67901C10.704 7.30429 10.6003 7.96946 10.63 8.63542C9.65038 8.88731 8.74088 9.35884 7.97043 10.0143C7.19998 10.6697 6.58877 11.4919 6.18312 12.4185C5.77746 13.3451 5.58798 14.3519 5.62902 15.3626C5.67007 16.3733 5.94057 17.3614 6.42004 18.2521C5.57701 18.937 4.91409 19.8175 4.48894 20.817C4.0638 21.8165 3.88931 22.9047 3.98065 23.9871C4.07199 25.0694 4.4264 26.113 5.01305 27.0271C5.5997 27.9412 6.40082 28.6982 7.34671 29.2321C7.2299 30.1358 7.29961 31.0539 7.55152 31.9296C7.80343 32.8054 8.2322 33.6201 8.81135 34.3237C9.3905 35.0272 10.1077 35.6045 10.9187 36.02C11.7298 36.4355 12.6173 36.6803 13.5267 36.7393C14.436 36.7983 15.3478 36.6703 16.2057 36.3631C17.0636 36.0559 17.8494 35.5761 18.5146 34.9534C19.1799 34.3306 19.7103 33.578 20.0733 32.7422C20.4363 31.9064 20.6241 31.005 20.625 30.0938V8.42709Z" stroke="#8b1e3f" stroke-width="2" stroke-linecap="round" stroke-linejoin="round"/>
<path id="Vector_2" d="M20.625 8.42709C20.6231 7.76047 20.7544 7.10019 21.0114 6.48509C21.2683 5.86998 21.6457 5.31246 22.1212 4.84533C22.5968 4.37819 23.161 4.01087 23.7806 3.76497C24.4002 3.51907 25.0627 3.39955 25.7292 3.41344C26.3957 3.42733 27.0526 3.57435 27.6615 3.84586C28.2703 4.11737 28.8187 4.50788 29.2744 4.99443C29.73 5.48097 30.0838 6.05373 30.3149 6.67901C30.546 7.30429 30.6498 7.96946 30.62 8.63542C31.5997 8.88731 32.5092 9.35884 33.2796 10.0143C34.0501 10.6697 34.6613 11.4919 35.067 12.4185C35.4726 13.3451 35.6621 14.3519 35.621 15.3626C35.58 16.3733 35.3095 17.3614 34.83 18.2521C35.6731 18.937 36.336 19.8175 36.7611 20.817C37.1863 21.8165 37.3608 22.9047 37.2694 23.9871C37.1781 25.0694 36.8237 26.113 36.237 27.0271C35.6504 27.9412 34.8492 28.6982 33.9034 29.2321C34.0202 30.1358 33.9505 31.0539 33.6985 31.9296C33.4466 32.8054 33.0179 33.6201 32.4387 34.3237C31.8596 35.0272 31.1423 35.6045 30.3313 36.02C29.5203 36.4355 28.6327 36.6803 27.7234 36.7393C26.8141 36.7983 25.9023 36.6703 25.0444 36.3631C24.1865 36.0559 23.4006 35.5761 22.7354 34.9534C22.0702 34.3306 21.5397 33.578 21.1767 32.7422C20.8138 31.9064 20.626 31.005 20.625 30.0938V8.42709Z" stroke="#8b1e3f" stroke-width="2" stroke-linecap="round" stroke-linejoin="round"/>
<path id="Vector_3" d="M25.625 21.7604C24.2257 21.2682 23.0039 20.3721 22.1139 19.1854C21.2239 17.9988 20.7058 16.5749 20.625 15.0938C20.5442 16.5749 20.0261 17.9988 19.1361 19.1854C18.2461 20.3721 17.0243 21.2682 15.625 21.7604" stroke="#8b1e3f" stroke-width="2" stroke-linecap="round" stroke-linejoin="round"/>
<path id="Vector_4" d="M29.9567 10.9271C30.36 10.228 30.5882 9.44177 30.6217 8.63541" stroke="#8b1e3f" stroke-width="2" stroke-linecap="round" stroke-linejoin="round"/>
<path id="Vector_5" d="M10.63 8.63541C10.663 9.44163 10.8906 10.2279 11.2933 10.9271" stroke="#8b1e3f" stroke-width="2" stroke-linecap="round" stroke-linejoin="round"/>
<path id="Vector_6" d="M6.42004 18.2537C6.72494 18.0054 7.05121 17.7846 7.39504 17.5938" stroke="#8b1e3f" stroke-width="2" stroke-linecap="round" stroke-linejoin="round"/>
<path id="Vector_7" d="M33.855 17.5938C34.1988 17.7846 34.5251 18.0054 34.83 18.2537" stroke="#8b1e3f" stroke-width="2" stroke-linecap="round" stroke-linejoin="round"/>
<path id="Vector_8" d="M10.625 30.0938C9.4764 30.0943 8.34712 29.7981 7.34668 29.2338" stroke="#8b1e3f" stroke-width="2" stroke-linecap="round" stroke-linejoin="round"/>
<path id="Vector_9" d="M33.9033 29.2338C32.9029 29.7981 31.7736 30.0943 30.625 30.0938" stroke="#8b1e3f" stroke-width="2" stroke-linecap="round" stroke-linejoin="round"/>
</g>
</svg>
