<svg width="41" height="41" viewBox="0 0 41 41" fill="none" xmlns="http://www.w3.org/2000/svg">
<g id="Frame">
<path id="Vector" d="M20.375 11.7604V35.0937" stroke="#8b1e3f" stroke-width="2" stroke-linecap="round" stroke-linejoin="round"/>
<path id="Vector_2" d="M5.37492 30.0937C4.93289 30.0937 4.50897 29.9182 4.19641 29.6056C3.88385 29.293 3.70825 28.8691 3.70825 28.4271V6.76042C3.70825 6.31839 3.88385 5.89447 4.19641 5.58191C4.50897 5.26934 4.93289 5.09375 5.37492 5.09375H13.7083C15.4764 5.09375 17.1721 5.79613 18.4223 7.04637C19.6725 8.29661 20.3749 9.99231 20.3749 11.7604C20.3749 9.99231 21.0773 8.29661 22.3275 7.04637C23.5778 5.79613 25.2735 5.09375 27.0416 5.09375H35.3749C35.8169 5.09375 36.2409 5.26934 36.5534 5.58191C36.866 5.89447 37.0416 6.31839 37.0416 6.76042V28.4271C37.0416 28.8691 36.866 29.293 36.5534 29.6056C36.2409 29.9182 35.8169 30.0937 35.3749 30.0937H25.3749C24.0488 30.0937 22.7771 30.6205 21.8394 31.5582C20.9017 32.4959 20.3749 33.7677 20.3749 35.0937C20.3749 33.7677 19.8481 32.4959 18.9105 31.5582C17.9728 30.6205 16.701 30.0937 15.3749 30.0937H5.37492Z" stroke="#8b1e3f" stroke-width="2" stroke-linecap="round" stroke-linejoin="round"/>
</g>
</svg>
